<?xml version="1.0" encoding="utf-8"?>
<!-- Generator: Adobe Illustrator 16.0.0, SVG Export Plug-In . SVG Version: 6.00 Build 0)  -->
<!DOCTYPE svg PUBLIC "-//W3C//DTD SVG 1.1//EN" "http://www.w3.org/Graphics/SVG/1.1/DTD/svg11.dtd">
<svg version="1.1" id="Layer_1" xmlns="http://www.w3.org/2000/svg" xmlns:xlink="http://www.w3.org/1999/xlink" x="0px" y="0px"
	 width="16px" height="16px" viewBox="0 0 16 16" enable-background="new 0 0 16 16" xml:space="preserve">
<path fill="#FFFFFF" d="M10.2,8.516l2.075,2.075c0.293,0.292,0.293,0.771,0,1.062l-0.592,0.594c-0.291,0.292-0.771,0.292-1.062,0
	L8.545,10.17c-0.292-0.292-0.769-0.292-1.061,0L5.41,12.244c-0.292,0.292-0.769,0.292-1.061,0l-0.592-0.592
	c-0.292-0.293-0.292-0.771,0-1.062l2.077-2.076c0.292-0.292,0.292-0.769,0-1.061L3.757,5.377c-0.292-0.292-0.292-0.77,0-1.061
	l0.592-0.592c0.292-0.292,0.769-0.292,1.061,0L7.487,5.8c0.292,0.292,0.769,0.292,1.061,0l2.077-2.076
	c0.291-0.292,0.77-0.292,1.061,0l0.592,0.592c0.293,0.292,0.293,0.769,0,1.061L10.2,7.454C9.908,7.746,9.908,8.223,10.2,8.516z"/>
</svg>
