<?xml version="1.0" encoding="utf-8"?>
<!-- Generator: Adobe Illustrator 16.0.0, SVG Export Plug-In . SVG Version: 6.00 Build 0)  -->
<!DOCTYPE svg PUBLIC "-//W3C//DTD SVG 1.1//EN" "http://www.w3.org/Graphics/SVG/1.1/DTD/svg11.dtd">
<svg version="1.1" id="Layer_1" xmlns="http://www.w3.org/2000/svg" xmlns:xlink="http://www.w3.org/1999/xlink" x="0px" y="0px"
	 width="473.05px" height="58.156px" viewBox="0 0 473.05 58.156" enable-background="new 0 0 473.05 58.156" xml:space="preserve">
<g>
	<g>
		<path fill="#231F20" d="M94.517,20.18v23.528h-2.814V20.18H82.59v-2.584h21.077v2.584H94.517z"/>
		<path fill="#231F20" d="M116.581,43.708V17.596h18.378v2.584h-15.641v8.366h13.286v2.584h-13.286v9.994h15.641v2.584H116.581z"/>
		<path fill="#231F20" d="M166.576,43.708L151.759,20.89v22.818h-2.622V17.596h3.496l14.499,22.292V17.596h2.661v26.112H166.576z"/>
		<path fill="#231F20" d="M213.462,20.18v23.528h-2.814V20.18h-9.112v-2.584h21.077v2.584H213.462z"/>
		<path fill="#231F20" d="M253.676,43.708V31.13h-15.411v12.578h-2.737V17.596h2.737v10.95h15.411v-10.95h2.737v26.112H253.676z"/>
		<path fill="#231F20" d="M295.535,30.652c0,1.928-0.298,3.718-0.892,5.37c-0.595,1.653-1.438,3.083-2.531,4.288
			c-1.093,1.207-2.413,2.154-3.959,2.844c-1.547,0.688-3.272,1.033-5.177,1.033c-1.902,0-3.625-0.345-5.169-1.033
			c-1.545-0.689-2.865-1.637-3.963-2.844c-1.098-1.205-1.943-2.635-2.536-4.288c-0.594-1.652-0.891-3.442-0.891-5.37
			c0-1.939,0.297-3.735,0.891-5.389c0.593-1.652,1.438-3.082,2.536-4.288s2.418-2.15,3.963-2.834
			c1.544-0.683,3.267-1.023,5.169-1.023c1.904,0,3.63,0.341,5.177,1.023c1.546,0.684,2.866,1.628,3.959,2.834
			s1.937,2.636,2.531,4.288C295.237,26.917,295.535,28.712,295.535,30.652z M292.587,30.652c0-1.629-0.224-3.117-0.67-4.465
			c-0.447-1.347-1.085-2.502-1.915-3.464c-0.829-0.962-1.838-1.706-3.024-2.232c-1.188-0.525-2.521-0.789-4.001-0.789
			c-1.493,0-2.834,0.264-4.021,0.789c-1.187,0.526-2.195,1.271-3.024,2.232c-0.83,0.962-1.465,2.117-1.905,3.464
			c-0.44,1.348-0.66,2.836-0.66,4.465c0,1.63,0.22,3.115,0.66,4.455c0.44,1.342,1.075,2.492,1.905,3.455
			c0.829,0.963,1.838,1.709,3.024,2.242c1.187,0.532,2.527,0.799,4.021,0.799c1.48,0,2.813-0.267,4.001-0.799
			c1.187-0.533,2.195-1.279,3.024-2.242c0.83-0.963,1.468-2.113,1.915-3.455C292.363,33.767,292.587,32.282,292.587,30.652z"/>
		<path fill="#231F20" d="M330.139,33.984c0,1.544-0.269,2.945-0.804,4.201c-0.535,1.258-1.271,2.33-2.209,3.217
			s-2.047,1.572-3.328,2.058s-2.668,0.728-4.16,0.728c-1.504,0-2.895-0.242-4.169-0.728c-1.275-0.485-2.375-1.171-3.3-2.058
			c-0.924-0.887-1.647-1.959-2.171-3.217c-0.522-1.256-0.784-2.657-0.784-4.201V17.596h2.738v16.427
			c0,1.139,0.179,2.172,0.536,3.099c0.358,0.928,0.866,1.724,1.523,2.39c0.658,0.665,1.464,1.18,2.416,1.545
			c0.951,0.364,2.021,0.547,3.21,0.547c1.176,0,2.243-0.183,3.201-0.547c0.959-0.365,1.776-0.88,2.453-1.545
			c0.678-0.666,1.198-1.462,1.562-2.39c0.364-0.927,0.547-1.96,0.547-3.099V17.596h2.737V33.984z"/>
		<path fill="#231F20" d="M353.207,17.118c1.971,0,3.746,0.385,5.329,1.155c1.582,0.771,2.913,1.851,3.994,3.238l-2.102,1.655
			c-0.843-1.09-1.894-1.94-3.151-2.551c-1.258-0.609-2.679-0.914-4.262-0.914c-0.741,0-1.457,0.077-2.147,0.231
			c-0.69,0.153-1.304,0.397-1.841,0.73s-0.968,0.775-1.294,1.327s-0.489,1.219-0.489,2c0,0.785,0.16,1.431,0.481,1.938
			c0.32,0.508,0.766,0.933,1.336,1.273s1.236,0.616,1.999,0.825c0.762,0.209,1.579,0.434,2.452,0.673l2.379,0.653
			c0.773,0.217,1.511,0.466,2.215,0.746c0.702,0.28,1.349,0.604,1.938,0.976c0.59,0.369,1.103,0.806,1.54,1.309
			c0.437,0.504,0.775,1.087,1.017,1.75c0.24,0.662,0.361,1.428,0.361,2.294c0,1.173-0.229,2.236-0.687,3.192
			c-0.457,0.955-1.104,1.771-1.942,2.445c-0.838,0.676-1.842,1.197-3.01,1.567c-1.168,0.369-2.464,0.554-3.886,0.554
			c-1.161,0-2.249-0.121-3.264-0.362s-1.949-0.582-2.805-1.021c-0.854-0.439-1.62-0.964-2.297-1.574s-1.257-1.285-1.742-2.022
			l2.394-1.687c0.446,0.715,0.97,1.328,1.569,1.84c0.6,0.511,1.244,0.933,1.934,1.265c0.688,0.332,1.413,0.577,2.172,0.737
			c0.76,0.16,1.535,0.24,2.326,0.24c0.946,0,1.812-0.112,2.598-0.336c0.786-0.225,1.464-0.555,2.032-0.989
			c0.569-0.435,1.01-0.966,1.323-1.594c0.313-0.627,0.47-1.344,0.47-2.15c0-0.857-0.186-1.562-0.555-2.112
			c-0.37-0.551-0.887-1.004-1.55-1.363c-0.663-0.357-1.459-0.654-2.388-0.891c-0.929-0.235-1.938-0.49-3.028-0.768
			c-0.669-0.169-1.341-0.34-2.016-0.51c-0.675-0.172-1.315-0.391-1.922-0.658c-0.605-0.269-1.171-0.578-1.693-0.929
			c-0.524-0.352-0.974-0.763-1.351-1.235c-0.376-0.472-0.673-1.018-0.89-1.636c-0.217-0.619-0.325-1.331-0.325-2.135
			c0-1.148,0.226-2.166,0.679-3.054c0.452-0.887,1.074-1.637,1.864-2.25c0.79-0.612,1.718-1.078,2.782-1.397
			S351.971,17.118,353.207,17.118z"/>
		<path fill="#231F20" d="M395.441,43.708l-3.121-7.85h-12.473l-3.197,7.85h-2.881l10.656-26.112h3.3l10.43,26.112H395.441z
			 M386.159,20.366L380.9,33.275h10.392L386.159,20.366z"/>
		<path fill="#231F20" d="M428.513,43.708L413.695,20.89v22.818h-2.622V17.596h3.496l14.499,22.292V17.596h2.661v26.112H428.513z"/>
		<path fill="#231F20" d="M447.419,43.708V17.596h9.831c1.977,0,3.733,0.328,5.27,0.985c1.537,0.658,2.834,1.57,3.893,2.738
			c1.059,1.167,1.865,2.546,2.42,4.135s0.832,3.321,0.832,5.197c0,1.864-0.277,3.59-0.832,5.179s-1.361,2.968-2.42,4.136
			s-2.355,2.083-3.893,2.746c-1.536,0.664-3.293,0.996-5.27,0.996H447.419z M457.229,41.125c1.533,0,2.891-0.252,4.072-0.757
			c1.183-0.504,2.176-1.212,2.98-2.125c0.805-0.912,1.412-2.013,1.821-3.302c0.408-1.289,0.613-2.719,0.613-4.289
			c0-1.582-0.205-3.018-0.613-4.308c-0.409-1.288-1.017-2.39-1.821-3.302s-1.798-1.618-2.98-2.115
			c-1.182-0.498-2.539-0.747-4.072-0.747h-7.072v20.944H457.229z"/>
	</g>
	<g>
		<path fill="#65426E" d="M53.918,55.978l-18.389-18.39l3.182-3.182L57.1,52.796L53.918,55.978z M6.568,55.978l-3.183-3.182
			l18.388-18.39l3.183,3.182L6.568,55.978z M38.711,23.75l-3.182-3.182l18.389-18.39L57.1,5.36L38.711,23.75z M21.773,23.75
			L3.386,5.36l3.183-3.182l18.388,18.39L21.773,23.75z"/>
	</g>
</g>
</svg>
