<?xml version="1.0" encoding="utf-8"?>
<!-- Generator: Adobe Illustrator 16.0.0, SVG Export Plug-In . SVG Version: 6.00 Build 0)  -->
<!DOCTYPE svg PUBLIC "-//W3C//DTD SVG 1.1//EN" "http://www.w3.org/Graphics/SVG/1.1/DTD/svg11.dtd">
<svg version="1.1" id="Layer_1" xmlns="http://www.w3.org/2000/svg" xmlns:xlink="http://www.w3.org/1999/xlink" x="0px" y="0px"
	 width="16px" height="16px" viewBox="0 0 16 16" enable-background="new 0 0 16 16" xml:space="preserve">
<path fill="#231F20" d="M9.187,9.904v2.935c0,0.413-0.338,0.752-0.751,0.75l-0.839,0.003c-0.413,0-0.752-0.34-0.751-0.752l0-2.937
	c0-0.413-0.337-0.75-0.75-0.75H3.163c-0.413,0-0.75-0.337-0.75-0.75V7.566c0-0.414,0.339-0.752,0.751-0.751l2.937,0
	c0.413,0,0.75-0.337,0.75-0.75l0-2.937c0-0.413,0.338-0.751,0.75-0.75l0.837,0c0.413,0,0.75,0.337,0.75,0.75v2.936
	c0,0.413,0.338,0.75,0.751,0.75l2.937,0.001c0.412-0.001,0.75,0.337,0.75,0.75v0.837c0,0.414-0.337,0.751-0.751,0.75H9.937
	C9.523,9.153,9.187,9.49,9.187,9.904z"/>
</svg>
